<?xml version="1.0" encoding="utf-8"?>
<!-- Generator: Adobe Illustrator 15.0.2, SVG Export Plug-In . SVG Version: 6.00 Build 0)  -->
<!DOCTYPE svg PUBLIC "-//W3C//DTD SVG 1.1//EN" "http://www.w3.org/Graphics/SVG/1.1/DTD/svg11.dtd">
<svg version="1.1" xmlns="http://www.w3.org/2000/svg" xmlns:xlink="http://www.w3.org/1999/xlink" x="0px" y="0px" width="50px"
	 height="50px" viewBox="0 0 50 50" enable-background="new 0 0 50 50" xml:space="preserve">
<g id="Layer_2">
</g>
<g id="Layer_1">
	
		<rect x="-14.602" y="-2.991" display="none" fill-rule="evenodd" clip-rule="evenodd" fill="#282F75" width="77.75" height="56.875"/>
	<g>
		<path fill-rule="evenodd" clip-rule="evenodd" fill="#FFFFFF" d="M30.604,12.551c0.023,1.923-0.332,2.268-2.366,2.295
			c-2.146,0.029-2.601-0.333-2.616-2.083c-0.017-1.938,0.32-2.26,2.378-2.278C30.255,10.466,30.582,10.726,30.604,12.551z"/>
		<path fill-rule="evenodd" clip-rule="evenodd" fill="#FFFFFF" d="M31.979,20.885c0.02,1.791-0.31,2.111-2.201,2.137
			c-1.999,0.027-2.421-0.31-2.437-1.938c-0.017-1.805,0.298-2.105,2.216-2.121C31.655,18.944,31.958,19.186,31.979,20.885z"/>
		<path fill-rule="evenodd" clip-rule="evenodd" fill="#FFFFFF" d="M24.338,25.278c0.023,1.783-0.308,2.102-2.19,2.127
			c-1.989,0.027-2.409-0.311-2.424-1.928c-0.016-1.796,0.296-2.094,2.203-2.111C24.016,23.347,24.318,23.588,24.338,25.278z"/>
		<path fill-rule="evenodd" clip-rule="evenodd" fill="#FFFFFF" d="M22.454,39.19c-2.383-2.212-4.127-2.568-7.858-3.16
			c-0.408-0.064-0.814-0.133-1.22-0.208c-1.926-0.36-2.679-1.375-2.686-3.05c-0.017-4.919-0.007-9.837-0.007-14.755
			c0-0.426,0.09-0.884-0.101-1.2c-0.108-0.178-0.291-0.292-0.371-0.305c-2.637-0.463-2.685-0.284-2.685,1.991
			c-0.001,5.823-0.004,11.647,0,17.469c0,1.591,0.062,1.641,1.95,1.716C14.725,37.897,17.395,37.919,22.454,39.19z"/>
		<path fill-rule="evenodd" clip-rule="evenodd" fill="#FFFFFF" d="M24.54,36.854c-3.688-1.759-4.02-1.917-9.686-2.75
			c-1.747-0.069-1.803-0.116-1.805-1.588c-0.003-5.39-0.002-10.779,0-16.168c0-2.105-0.208-2.318,2.232-1.89
			c0.073,0.013,0.829,0.098,0.929,0.262c0.177,0.292,0.118,0.75,0.118,1.146c0,4.552-0.008,9.104,0.006,13.655
			c0.006,1.551,0.694,2.198,2.373,2.808C24.77,34.057,24.54,36.854,24.54,36.854z"/>
		<path fill-rule="evenodd" clip-rule="evenodd" fill="#FFFFFF" d="M23.051,17.377c0.016,1.362-0.234,1.606-1.673,1.625
			c-1.521,0.021-1.843-0.235-1.854-1.475c-0.012-1.373,0.226-1.6,1.684-1.613C22.805,15.901,23.037,16.083,23.051,17.377z"/>
		<path fill-rule="evenodd" clip-rule="evenodd" fill="#FFFFFF" d="M27.407,39.283c2.383-2.213,4.128-2.569,7.858-3.161
			c0.409-0.064,0.815-0.133,1.22-0.208c1.927-0.36,2.68-1.376,2.687-3.051c0.016-4.919,0.007-9.836,0.007-14.754
			c0-0.426-0.091-0.884,0.1-1.201c0.109-0.178,0.291-0.292,0.371-0.305c2.638-0.464,2.685-0.284,2.685,1.991
			c0.001,5.823,0.004,11.646,0,17.469c-0.001,1.591-0.062,1.64-1.95,1.715C35.138,37.989,32.467,38.01,27.407,39.283z"/>
		<path fill-rule="evenodd" clip-rule="evenodd" fill="#FFFFFF" d="M25.321,36.945c3.688-1.758,4.02-1.917,9.686-2.75
			c1.746-0.07,1.803-0.115,1.806-1.588c0.003-5.391,0.001-10.779,0-16.169c0-2.104,0.21-2.318-2.231-1.889
			c-0.073,0.013-0.83,0.098-0.929,0.262c-0.177,0.292-0.117,0.75-0.117,1.146c-0.002,4.552,0.008,9.104-0.008,13.656
			c-0.005,1.55-0.693,2.196-2.371,2.806C25.092,34.147,25.321,36.945,25.321,36.945z"/>
	</g>
</g>
</svg>
